<svg xmlns="http://www.w3.org/2000/svg" height="24" width="24"><style>path {fill: #ffc600}</style><path d="m12 17.05-3.65 2.225q-.15.075-.275.05-.125-.025-.25-.1-.125-.075-.187-.213-.063-.137.012-.287L8.6 14.6l-3.2-2.8q-.125-.1-.162-.238-.038-.137.012-.262t.15-.213q.1-.087.275-.112L9.9 10.6l1.65-3.9q.075-.175.188-.238Q11.85 6.4 12 6.4q.15 0 .262.062.113.063.188.238l1.675 3.9 4.225.375q.15.025.25.112.1.088.15.213.05.125.013.262-.038.138-.163.238l-3.2 2.8.975 4.125q.05.15-.012.287-.063.138-.188.213-.125.075-.25.1-.125.025-.275-.05Z"/></svg>