<svg xmlns="http://www.w3.org/2000/svg" height="24" viewBox="0 -960 960 960" width="24"><path d="M229.423-201.731v-36.923h58.115l75.77-255.731q5.557-20.172 21.91-32.221 16.352-12.048 36.628-12.048h116.308q20.276 0 36.628 12.048 16.353 12.049 21.91 32.221l75.77 255.731h58.5v36.923H229.423Zm97.385-36.923h306.769l-72.346-245.384q-2.308-8.077-8.846-12.885-6.539-4.808-15-4.808h-114.77q-8.461 0-15 4.808-6.538 4.808-8.846 12.885l-71.961 245.384Zm134.923-407.692v-156.923h36.923v156.923h-36.923ZM678-556.423l-26.193-26.192L763-693.193l25.577 25.578L678-556.423Zm63.731 190.077v-36.923h156.923v36.923H741.731ZM282-556.423 171.808-667.615 197-693.193l111.577 110.578L282-556.423ZM61.73-366.346v-36.923h156.924v36.923H61.731ZM480-238.654Z"/></svg>