<svg xmlns="http://www.w3.org/2000/svg" height="24" viewBox="0 -960 960 960" width="24"><path d="M361.538-280q-25.937 0-43.738-17.8-17.8-17.801-17.8-43.738v-430.77q0-25.937 17.8-43.738 17.801-17.8 43.738-17.8h310.77q25.937 0 43.738 17.8 17.8 17.801 17.8 43.738v430.77q0 25.937-17.8 43.738-17.801 17.8-43.738 17.8h-310.77Zm0-36.923h310.77q9.231 0 16.923-7.692 7.692-7.693 7.692-16.923v-430.77q0-9.231-7.692-16.923-7.692-7.692-16.923-7.692h-310.77q-9.23 0-16.923 7.692-7.692 7.692-7.692 16.923v430.77q0 9.23 7.692 16.923 7.693 7.692 16.923 7.692Zm-113.846 150.77q-25.937 0-43.738-17.801-17.8-17.8-17.8-43.738v-467.693h36.923v467.693q0 9.231 7.692 16.923 7.692 7.692 16.923 7.692h347.693v36.924H247.692Zm89.231-150.77v-480 480Z"/></svg>