<svg xmlns="http://www.w3.org/2000/svg" height="24" viewBox="0 96 960 960" width="24"><path d="m614.654 601.846-29.885-29.884q9.616-54.847-29.942-92.597-39.558-37.75-90.789-28.134l-29.884-29.699q10.077-4.34 21.346-6.167t24.385-1.827q60.163 0 101.37 41.207 41.207 41.207 41.207 101.37 0 13.116-1.827 25.212t-5.981 20.519Zm123.5 120.577-27.346-24.283q37-28.525 67.108-63.407Q808.024 599.85 828.923 556q-49.385-100.269-142.211-159.212Q593.885 337.846 480 337.846q-28.385 0-57.308 4.308t-55.423 12.308L338 325.192q34.115-12.654 70.308-18.461 36.192-5.808 71.692-5.808 127.732 0 233.904 70.346 106.173 70.346 156.25 184.791-21.461 46.94-53.981 88.998-32.519 42.058-78.019 77.365Zm47.692 211.116L633.115 780.885q-25.807 12.154-65.278 21.173-39.471 9.019-87.837 9.019-128.351 0-233.637-70.346T89.846 556.163q23.308-52.548 61.461-98.451 38.154-45.904 80.847-76.789l-110.308-112 25.846-25.846 664.616 664.616-26.462 25.846Zm-527.231-526.77q-34.384 23.847-70.923 64.308-36.538 40.462-56.615 84.923 49.385 100.269 142.211 159.212Q366.115 774.154 480 774.154q35.731 0 71.865-6.923 36.135-6.923 53.212-14l-66.642-66.923q-9.281 5.308-26.82 8.731-17.538 3.423-31.713 3.423-59.825 0-101.094-41.173-41.27-41.174-41.27-101.289 0-13.207 3.423-30.154T349.692 498l-91.077-91.231Zm280.423 119.462Zm-107 53.577Z"/></svg>