<svg xmlns="http://www.w3.org/2000/svg" height="24" viewBox="0 -960 960 960" width="24"><path d="M204.192-214.038v-36.924h61.539v-311.384q0-78 49.758-137.5 49.759-59.5 125.742-74.616v-20.659q0-16.35 11.022-27.48 11.023-11.13 27.539-11.13 16.516 0 27.747 11.13 11.23 11.13 11.23 27.48v20.659q76.154 15.116 126.02 74.616 49.865 59.5 49.865 137.5v311.384h61.539v36.924H204.192ZM480-495.385ZM479.864-112q-26.21 0-44.729-18.615-18.52-18.616-18.52-44.77h126.77q0 26.347-18.656 44.866Q506.074-112 479.864-112Zm-177.21-138.962h355.077v-311.384q0-73.732-52.079-125.539-52.078-51.807-125.787-51.807t-125.46 51.807q-51.751 51.807-51.751 125.539v311.384Z"/></svg>