<svg xmlns="http://www.w3.org/2000/svg" height="20" viewBox="0 -960 960 960" width="20"><path d="M424.615-298.923H285.077q-75.147 0-128.112-53.062Q104-405.047 104-480.331t52.965-128.015q52.965-52.731 128.112-52.731h139.538v58H285.077q-50.769 0-86.923 36.154T162-480q0 50.769 36.154 86.923t86.923 36.154h139.538v58ZM338-452v-58h284v58H338Zm197.385 153.077v-58h139.538q50.769 0 86.923-36.154T798-480q0-50.769-36.154-86.923t-86.923-36.154H535.385v-58h139.538q75.147 0 128.112 53.062Q856-554.953 856-479.669t-52.965 128.015q-52.965 52.731-128.112 52.731H535.385Z"/></svg>