<svg xmlns="http://www.w3.org/2000/svg" height="24" viewBox="0 -960 960 960" width="24"><path d="M480.114-487.5q29.001 0 49.636-20.653 20.634-20.652 20.634-49.653 0-29.001-20.692-49.636-20.693-20.634-49.75-20.634t-49.595 20.692q-20.539 20.692-20.539 49.75 0 29.057 20.653 49.595 20.652 20.539 49.653 20.539ZM480-181.884Q595.373-286.68 656.629-382.109q61.256-95.429 61.256-166.852 0-108.077-68.266-177.577-68.265-69.501-169.692-69.501t-169.62 69.501q-68.192 69.5-68.192 177.577 0 71.423 61.256 166.852T480-181.884Zm0 74.19q-147.461-129.73-220.653-239.441-73.192-109.711-73.192-201.64 0-135.007 87.307-218.923T480-851.614q119.231 0 206.538 83.916 87.307 83.916 87.307 218.923 0 91.929-73.192 201.64Q627.461-237.424 480-107.694Zm0-449.998Z"/></svg>