<svg xmlns="http://www.w3.org/2000/svg" height="24" viewBox="0 96 960 960" width="24"><path d="M480.091 714.23q65.966 0 112.052-46.177 46.087-46.177 46.087-112.144 0-65.966-46.177-112.052-46.177-46.087-112.144-46.087-65.966 0-112.052 46.177-46.087 46.177-46.087 112.144 0 65.966 46.177 112.052 46.177 46.087 112.144 46.087Zm.004-51.845q-44.287 0-75.383-31.002-31.097-31.001-31.097-75.288 0-44.287 31.002-75.383 31.001-31.097 75.288-31.097 44.287 0 75.383 31.001 31.097 31.002 31.097 75.289 0 44.287-31.001 75.383-31.002 31.097-75.289 31.097Zm-.04 167.152q-135.054 0-245.785-74.653Q123.54 680.23 70.424 556q53.116-124.23 163.791-198.884 110.676-74.653 245.73-74.653 135.054 0 245.785 74.653Q836.46 431.77 889.576 556 836.46 680.23 725.785 754.884q-110.676 74.653-245.73 74.653ZM480 556Zm0 217.577q111.309 0 205.067-58.656Q778.825 656.265 827.962 556q-49.137-100.265-142.895-158.921Q591.309 338.423 480 338.423q-111.309 0-205.067 58.656Q181.175 455.735 132.038 556q49.137 100.265 142.895 158.921Q368.691 773.577 480 773.577Z"/></svg>