<svg xmlns="http://www.w3.org/2000/svg" height="24" viewBox="0 -960 960 960" width="24"><style>path { fill:rgba(0,0,0,0.1); }</style><path d="m801.192-105.423-62.126-61.654q-3.846.77-6.923 1.154-3.077.385-6.923.385H227.077q-25.577 0-43.558-17.981-17.981-17.981-17.981-43.558v-498.231q0-3.846.385-6.923.384-3.077 1.923-6.154l-62.308-62.423 26.346-25.961 695.385 695.385-26.077 25.961Zm-574.115-97.039h476.692l-98.802-99.269h-321.89L380-429.846l75.385 91.308L504-402.231 202.462-703.769v476.692q0 10.769 6.923 17.692t17.692 6.923Zm567.385-70.422-36.924-36.924v-423.115q0-10.769-6.923-17.692t-17.692-6.923H309.808l-36.924-36.924h460.039q25.577 0 43.558 17.981 17.981 17.981 17.981 43.558v460.039ZM536.423-530.923Zm-82.231 78.5Z"/></svg>